<svg width="70" height="60" viewBox="0 0 70 60" fill="none" xmlns="http://www.w3.org/2000/svg">
<path d="M37.0501 60C20.9621 60 7.88751 46.602 7.88751 30.054C7.88751 13.504 20.9621 0 37.0501 0C53.1362 0 66.2127 13.504 66.2127 30.054C66.2127 46.602 53.1362 60 37.0501 60Z" fill="#FF5226"/>
<path d="M32.5338 4.06006L0 56.2801H14.9138L33.7081 26.1801L33.2493 25.9661L28.0389 47.5061L39.0701 49.5061L50.4086 34.8461L49.7942 34.5321L45.9642 51.1841L70 46.4721L65.0968 38.1641L56.4336 40.2041L57.4562 41.4141L61.4904 24.0241L52.0922 17.5601L39.7856 33.4801L40.398 33.7961L45.4529 12.9361L32.5338 4.06006Z" fill="#FFDD00"/>
<path d="M32.5338 4.06006L0 56.2801H14.9138L33.7081 26.1801L33.2493 25.9661L28.0389 47.5061L39.0701 49.5061L50.4086 34.8461L49.7942 34.5321L45.9642 51.1841L55.6267 49.2901L61.4904 24.0241L52.0922 17.5601L39.7856 33.4801L40.398 33.7961L45.4529 12.9361L32.5338 4.06006Z" fill="#FFDD00"/>
</svg>
