<svg width="360" height="360" viewBox="0 0 360 360" fill="none" xmlns="http://www.w3.org/2000/svg">
<path d="M75 0H285C326.42 0 360 33.58 360 75V285C360 326.42 326.42 360 285 360H75C33.58 360 0 326.42 0 285V75C0 33.58 33.58 0 75 0Z" fill="#2962FF"/>
<path d="M154.99 200.87H129.26L162.11 157.41C162.83 156.46 162.63 155.06 161.67 154.35C161.31 154.07 160.83 153.91 160.36 153.91H112.84C108.66 153.91 105.25 157.33 105.25 161.5C105.25 165.67 108.67 169.09 112.84 169.09H134.19L101.23 212.59C100.47 213.54 100.67 214.9 101.63 215.65C102.03 215.97 102.5 216.13 102.98 216.09H154.95C159.13 215.89 162.35 212.31 162.15 208.1C161.95 204.2 158.85 201.1 154.95 200.9V200.86L154.99 200.87ZM321.04 153.91C316.86 153.91 313.45 157.33 313.45 161.5V186.99L272.41 154.42C271.5 153.66 270.1 153.78 269.35 154.74C269.03 155.14 268.87 155.61 268.87 156.13V208.5C268.87 212.68 272.29 216.09 276.46 216.09C280.63 216.09 284.05 212.71 284.05 208.5V183.01L325.09 215.62C326.04 216.38 327.44 216.22 328.19 215.26C328.51 214.86 328.67 214.39 328.67 213.91V161.5C328.64 157.29 325.26 153.91 321.04 153.91ZM212.45 202.3C195.07 202.3 182.11 193.15 182.11 184.96C182.11 176.77 195.11 167.62 212.45 167.62C229.83 167.62 242.79 176.77 242.79 184.96C242.79 193.15 229.86 202.3 212.45 202.3ZM212.45 152.43C187.32 152.43 166.92 166.98 166.92 184.96C166.92 202.94 187.32 217.49 212.45 217.49C237.58 217.49 257.98 202.94 257.98 184.96C257.98 166.98 237.58 152.43 212.45 152.43ZM62.97 202.34C53.39 202.34 45.59 194.59 45.59 185C45.59 175.41 53.34 167.62 62.93 167.62C72.52 167.62 80.31 175.37 80.31 184.96V185C80.31 194.55 72.56 202.3 62.97 202.34ZM62.97 152.43C45 152.43 30.44 166.98 30.4 184.96C30.4 202.93 44.95 217.49 62.93 217.53C80.9 217.53 95.46 202.98 95.5 185V184.96C95.46 166.99 80.91 152.43 62.97 152.43Z" fill="white"/>
</svg>
