<svg width="1000" height="1000" viewBox="0 0 1000 1000" fill="none" xmlns="http://www.w3.org/2000/svg">
<g clip-path="url(#clip0_2082_303)">
<path d="M0 469.5C0 305.1 0 223 32 160.2C60.1 105 105 60.1 160.2 32C223 0 305.1 0 469.5 0H530.6C694.9 0 777 0 839.8 32C895 60.1 939.9 105 968 160.2C1000 223 1000 305.1 1000 469.5V530.6C1000 694.9 1000 777.1 968 839.9C939.9 895 895 939.9 839.8 968C777 1000 694.9 1000 530.5 1000H469.4C305.1 1000 222.9 1000 160.1 968C105 939.9 60.1 895 32 839.8C0 777 0 694.9 0 530.5V469.5Z" fill="url(#paint0_linear_2082_303)"/>
<path d="M761 352.9C725.2 352.9 692.8 363.7 665.2 382.3V213H588.8V525C588.8 619.9 666 696.3 760.5 696.3C855 696.3 933.1 620.4 933.1 524.1C933.2 427.9 856.8 352.9 761 352.9ZM414.3 547.1L344.4 365H290.9L220.6 547.1L150.2 365H66.9L189.9 685.2H243.4L317.2 494.5L391.4 685.2H444.9L567.5 365H484.6L414.3 547.1ZM760.6 620C708.8 620 665.2 578.6 665.2 524.6C665.2 470.6 706.2 429.7 761 429.7C815.8 429.7 856.8 472.4 856.8 524.6C856.8 576.9 813.2 620 760.6 620Z" fill="white"/>
</g>
<defs>
<linearGradient id="paint0_linear_2082_303" x1="197.993" y1="1003.34" x2="811.632" y2="-19.3859" gradientUnits="userSpaceOnUse">
<stop stop-color="#6F01FB"/>
<stop offset="1" stop-color="#FF49D7"/>
</linearGradient>
<clipPath id="clip0_2082_303">
<rect width="1000" height="1000" fill="white"/>
</clipPath>
</defs>
</svg>
