<svg width="0" height="0" style="position:absolute"><symbol viewBox="0 0 32 33" fill="none" id="icon-arrow-right" xmlns="http://www.w3.org/2000/svg"><path d="M19.24 8.40674L27.3333 16.5001L19.24 24.5934" stroke="#292D32" stroke-width="1.5" stroke-miterlimit="10" stroke-linecap="round" stroke-linejoin="round"/><path d="M4.66675 16.5H27.1067" stroke="#292D32" stroke-width="1.5" stroke-miterlimit="10" stroke-linecap="round" stroke-linejoin="round"/></symbol><symbol viewBox="0 0 24 24" fill="none" id="icon-arrow-right-red" xmlns="http://www.w3.org/2000/svg"><path d="M14.4299 5.92993L20.4999 11.9999L14.4299 18.0699" stroke="#BD294B" stroke-width="1.5" stroke-miterlimit="10" stroke-linecap="round" stroke-linejoin="round"/><path d="M3.5 12H20.33" stroke="#BD294B" stroke-width="1.5" stroke-miterlimit="10" stroke-linecap="round" stroke-linejoin="round"/></symbol><symbol viewBox="0 0 50 51" fill="none" id="icon-box" xmlns="http://www.w3.org/2000/svg"><path d="M6.60425 16L25.0001 26.6458L43.2709 16.0624" stroke="#BD294B" stroke-width="1.5" stroke-linecap="round" stroke-linejoin="round"/><path d="M25 45.5208V26.625" stroke="#BD294B" stroke-width="1.5" stroke-linecap="round" stroke-linejoin="round"/><path d="M20.6875 5.66675L9.56254 11.8543C7.04171 13.2501 4.97925 16.7501 4.97925 19.6251V31.396C4.97925 34.271 7.04171 37.771 9.56254 39.1668L20.6875 45.3544C23.0625 46.6669 26.9584 46.6669 29.3334 45.3544L40.4584 39.1668C42.9792 37.771 45.0417 34.271 45.0417 31.396V19.6251C45.0417 16.7501 42.9792 13.2501 40.4584 11.8543L29.3334 5.66675C26.9375 4.33341 23.0625 4.33341 20.6875 5.66675Z" stroke="#BD294B" stroke-width="1.5" stroke-linecap="round" stroke-linejoin="round"/><path d="M35.4166 28.0832V20.4583L15.6458 9.0415" stroke="#BD294B" stroke-width="1.5" stroke-linecap="round" stroke-linejoin="round"/></symbol><symbol viewBox="0 0 50 50" fill="none" id="icon-box-tick" xmlns="http://www.w3.org/2000/svg"><path d="M47.9166 37.3125C47.9583 38.875 47.5416 40.3542 46.7916 41.625C46.3749 42.375 45.8125 43.0626 45.1875 43.6251C43.75 44.9584 41.8541 45.7709 39.7499 45.8334C36.7083 45.8959 34.0208 44.3334 32.5416 41.9376C31.7499 40.7084 31.2708 39.2293 31.25 37.6668C31.1875 35.0418 32.3541 32.6667 34.2291 31.1042C35.6458 29.9375 37.4375 29.2084 39.3958 29.1667C44 29.0626 47.8125 32.7083 47.9166 37.3125Z" stroke="#BD294B" stroke-width="1.5" stroke-miterlimit="10" stroke-linecap="round" stroke-linejoin="round"/><path d="M36.3334 37.5627L38.4376 39.5626L42.7917 35.3542" stroke="#BD294B" stroke-width="1.5" stroke-linecap="round" stroke-linejoin="round"/><path d="M6.60425 15.5L25.0001 26.1458L43.2709 15.5624" stroke="#BD294B" stroke-width="1.5" stroke-linecap="round" stroke-linejoin="round"/><path d="M25 45.0209V26.125" stroke="#BD294B" stroke-width="1.5" stroke-linecap="round" stroke-linejoin="round"/><path d="M45.0209 19.1043V30.896C45.0209 31.0002 45.0209 31.0834 45.0001 31.1876C43.5417 29.9167 41.6667 29.1668 39.5834 29.1668C37.6251 29.1668 35.8126 29.8543 34.3751 31.0001C32.4584 32.521 31.2501 34.8751 31.2501 37.5001C31.2501 39.0626 31.6875 40.5418 32.4584 41.7918C32.6459 42.1251 32.875 42.4376 33.125 42.7293L29.3126 44.8335C26.9376 46.1668 23.0625 46.1668 20.6875 44.8335L9.56254 38.6668C7.04171 37.271 4.97925 33.771 4.97925 30.896V19.1043C4.97925 16.2293 7.04171 12.7293 9.56254 11.3335L20.6875 5.16675C23.0625 3.83341 26.9376 3.83341 29.3126 5.16675L40.4376 11.3335C42.9584 12.7293 45.0209 16.2293 45.0209 19.1043Z" stroke="#BD294B" stroke-width="1.5" stroke-linecap="round" stroke-linejoin="round"/></symbol><symbol viewBox="0 0 50 50" fill="none" id="icon-box1" xmlns="http://www.w3.org/2000/svg"><path d="M6.60425 15.5L25.0001 26.1458L43.2709 15.5625" stroke="#BD294B" stroke-width="1.5" stroke-linecap="round" stroke-linejoin="round"/><path d="M25 45.0208V26.125" stroke="#BD294B" stroke-width="1.5" stroke-linecap="round" stroke-linejoin="round"/><path d="M20.6876 5.16668L9.56258 11.3333C7.04175 12.7292 4.97925 16.2292 4.97925 19.1042V30.875C4.97925 33.75 7.04175 37.25 9.56258 38.6458L20.6876 44.8333C23.0626 46.1458 26.9584 46.1458 29.3334 44.8333L40.4584 38.6458C42.9793 37.25 45.0418 33.75 45.0418 30.875V19.1042C45.0418 16.2292 42.9793 12.7292 40.4584 11.3333L29.3334 5.14585C26.9376 3.83335 23.0626 3.83335 20.6876 5.16668Z" stroke="#BD294B" stroke-width="1.5" stroke-linecap="round" stroke-linejoin="round"/></symbol><symbol viewBox="0 0 50 50" fill="none" id="icon-clock" xmlns="http://www.w3.org/2000/svg"><path d="M45.8334 25.0001C45.8334 36.5001 36.5001 45.8334 25.0001 45.8334C13.5001 45.8334 4.16675 36.5001 4.16675 25.0001C4.16675 13.5001 13.5001 4.16675 25.0001 4.16675C36.5001 4.16675 45.8334 13.5001 45.8334 25.0001Z" stroke="#BD294B" stroke-width="1.5" stroke-linecap="round" stroke-linejoin="round"/><path d="M32.7292 31.6249L26.2709 27.7708C25.1459 27.1041 24.2292 25.4999 24.2292 24.1874V15.6458" stroke="#BD294B" stroke-width="1.5" stroke-linecap="round" stroke-linejoin="round"/></symbol><symbol viewBox="0 0 50 50" fill="none" id="icon-document-text" xmlns="http://www.w3.org/2000/svg"><path d="M45.8334 20.8334V31.2501C45.8334 41.6668 41.6668 45.8334 31.2501 45.8334H18.7501C8.33342 45.8334 4.16675 41.6668 4.16675 31.2501V18.7501C4.16675 8.33342 8.33342 4.16675 18.7501 4.16675H29.1667" stroke="#BD294B" stroke-width="1.5" stroke-linecap="round" stroke-linejoin="round"/><path d="M45.8334 20.8334H37.5001C31.2501 20.8334 29.1667 18.7501 29.1667 12.5001V4.16675L45.8334 20.8334Z" stroke="#BD294B" stroke-width="1.5" stroke-linecap="round" stroke-linejoin="round"/><path d="M14.5833 27.0833H27.0833" stroke="#BD294B" stroke-width="1.5" stroke-linecap="round" stroke-linejoin="round"/><path d="M14.5833 35.4167H22.9166" stroke="#BD294B" stroke-width="1.5" stroke-linecap="round" stroke-linejoin="round"/></symbol><symbol viewBox="0 0 50 51" fill="none" id="icon-group" xmlns="http://www.w3.org/2000/svg"><path d="M31.25 4.66675V25.5001C31.25 27.7917 29.375 29.6667 27.0833 29.6667H4.16663V13.0001C4.16663 8.39591 7.89579 4.66675 12.5 4.66675H31.25Z" stroke="#BD294B" stroke-width="1.5" stroke-linecap="round" stroke-linejoin="round"/><path d="M45.8333 29.6667V35.9167C45.8333 39.3751 43.0416 42.1667 39.5833 42.1667H37.5C37.5 39.8751 35.625 38.0001 33.3333 38.0001C31.0416 38.0001 29.1666 39.8751 29.1666 42.1667H20.8333C20.8333 39.8751 18.9583 38.0001 16.6666 38.0001C14.375 38.0001 12.5 39.8751 12.5 42.1667H10.4166C6.95829 42.1667 4.16663 39.3751 4.16663 35.9167V29.6667H27.0833C29.375 29.6667 31.25 27.7917 31.25 25.5001V10.9167H35.0833C36.5833 10.9167 37.9583 11.7293 38.7083 13.0209L42.2708 19.2501H39.5833C38.4375 19.2501 37.5 20.1876 37.5 21.3334V27.5834C37.5 28.7292 38.4375 29.6667 39.5833 29.6667H45.8333Z" stroke="#BD294B" stroke-width="1.5" stroke-linecap="round" stroke-linejoin="round"/><path d="M16.6667 46.3333C18.9679 46.3333 20.8333 44.4679 20.8333 42.1667C20.8333 39.8655 18.9679 38 16.6667 38C14.3655 38 12.5 39.8655 12.5 42.1667C12.5 44.4679 14.3655 46.3333 16.6667 46.3333Z" stroke="#BD294B" stroke-width="1.5" stroke-linecap="round" stroke-linejoin="round"/><path d="M33.3333 46.3333C35.6345 46.3333 37.5 44.4679 37.5 42.1667C37.5 39.8655 35.6345 38 33.3333 38C31.0321 38 29.1666 39.8655 29.1666 42.1667C29.1666 44.4679 31.0321 46.3333 33.3333 46.3333Z" stroke="#BD294B" stroke-width="1.5" stroke-linecap="round" stroke-linejoin="round"/><path d="M45.8333 25.5V29.6667H39.5833C38.4375 29.6667 37.5 28.7292 37.5 27.5833V21.3333C37.5 20.1875 38.4375 19.25 39.5833 19.25H42.2709L45.8333 25.5Z" stroke="#BD294B" stroke-width="1.5" stroke-linecap="round" stroke-linejoin="round"/></symbol><symbol viewBox="0 0 50 51" fill="none" id="icon-house-2" xmlns="http://www.w3.org/2000/svg"><path d="M4.16663 46.3333H45.8333" stroke="#BD294B" stroke-width="1.5" stroke-miterlimit="10" stroke-linecap="round" stroke-linejoin="round"/><path d="M6.14587 46.3335L6.25005 21.2709C6.25005 20.0001 6.85421 18.7919 7.85421 18.0002L22.4375 6.646C23.9375 5.47933 26.0417 5.47933 27.5626 6.646L42.1459 17.9793C43.1667 18.771 43.75 19.9792 43.75 21.2709V46.3335" stroke="#BD294B" stroke-width="1.5" stroke-miterlimit="10" stroke-linejoin="round"/><path d="M32.2917 23.4167H17.7084C15.9792 23.4167 14.5834 24.8126 14.5834 26.5417V46.3334H35.4167V26.5417C35.4167 24.8126 34.0209 23.4167 32.2917 23.4167Z" stroke="#BD294B" stroke-width="1.5" stroke-miterlimit="10" stroke-linecap="round" stroke-linejoin="round"/><path d="M20.8334 34.3542V37.4792" stroke="#BD294B" stroke-width="1.5" stroke-miterlimit="10" stroke-linecap="round" stroke-linejoin="round"/><path d="M21.875 16.125H28.125" stroke="#BD294B" stroke-width="1.5" stroke-miterlimit="10" stroke-linecap="round" stroke-linejoin="round"/></symbol><symbol viewBox="0 0 24 24" fill="none" id="icon-plus" xmlns="http://www.w3.org/2000/svg"><line x1="12.5" y1="2.18557e-08" x2="12.5" y2="24" stroke="black"/><line x1="24" y1="12.5" y2="12.5" stroke="black"/></symbol><symbol viewBox="0 0 50 50" fill="none" id="icon-user-square" xmlns="http://www.w3.org/2000/svg"><path d="M37.7917 45.0416C35.9584 45.5832 33.7917 45.8332 31.25 45.8332H18.75C16.2084 45.8332 14.0417 45.5832 12.2084 45.0416C12.6667 39.6249 18.2292 35.354 25 35.354C31.7709 35.354 37.3334 39.6249 37.7917 45.0416Z" stroke="#BD294B" stroke-width="1.5" stroke-linecap="round" stroke-linejoin="round"/><path d="M31.25 4.16675H18.75C8.33329 4.16675 4.16663 8.33341 4.16663 18.7501V31.2501C4.16663 39.1251 6.54163 43.4376 12.2083 45.0417C12.6666 39.6251 18.2291 35.3542 25 35.3542C31.7708 35.3542 37.3333 39.6251 37.7916 45.0417C43.4583 43.4376 45.8333 39.1251 45.8333 31.2501V18.7501C45.8333 8.33341 41.6666 4.16675 31.25 4.16675ZM25 29.5209C20.875 29.5209 17.5416 26.1668 17.5416 22.0418C17.5416 17.9168 20.875 14.5834 25 14.5834C29.125 14.5834 32.4583 17.9168 32.4583 22.0418C32.4583 26.1668 29.125 29.5209 25 29.5209Z" stroke="#BD294B" stroke-width="1.5" stroke-linecap="round" stroke-linejoin="round"/><path d="M32.4583 22.0416C32.4583 26.1666 29.125 29.5207 25 29.5207C20.875 29.5207 17.5416 26.1666 17.5416 22.0416C17.5416 17.9166 20.875 14.5833 25 14.5833C29.125 14.5833 32.4583 17.9166 32.4583 22.0416Z" stroke="#BD294B" stroke-width="1.5" stroke-linecap="round" stroke-linejoin="round"/></symbol><symbol viewBox="0 0 50 50" fill="none" id="icon-user-tick" xmlns="http://www.w3.org/2000/svg"><path d="M24.9999 25.0001C30.7529 25.0001 35.4166 20.3364 35.4166 14.5834C35.4166 8.83045 30.7529 4.16675 24.9999 4.16675C19.247 4.16675 14.5833 8.83045 14.5833 14.5834C14.5833 20.3364 19.247 25.0001 24.9999 25.0001Z" stroke="#BD294B" stroke-width="1.5" stroke-linecap="round" stroke-linejoin="round"/><path d="M7.10425 45.8333C7.10425 37.7708 15.1251 31.25 25.0001 31.25C27.0001 31.25 28.9376 31.5208 30.7501 32.0208" stroke="#BD294B" stroke-width="1.5" stroke-linecap="round" stroke-linejoin="round"/><path d="M45.8334 37.5001C45.8334 39.0626 45.3959 40.5417 44.6251 41.7917C44.1876 42.5417 43.6251 43.2084 42.9793 43.7501C41.5209 45.0626 39.6042 45.8334 37.5001 45.8334C34.4584 45.8334 31.8126 44.2084 30.3751 41.7917C29.6042 40.5417 29.1667 39.0626 29.1667 37.5001C29.1667 34.8751 30.3751 32.5209 32.2917 31.0001C33.7292 29.8543 35.5417 29.1667 37.5001 29.1667C42.1042 29.1667 45.8334 32.8959 45.8334 37.5001Z" stroke="#BD294B" stroke-width="1.5" stroke-miterlimit="10" stroke-linecap="round" stroke-linejoin="round"/><path d="M34.25 37.5001L36.3125 39.5626L40.75 35.4585" stroke="#BD294B" stroke-width="1.5" stroke-linecap="round" stroke-linejoin="round"/></symbol></svg>