<svg width="50" height="50" viewBox="0 0 50 50" fill="none" xmlns="http://www.w3.org/2000/svg">
<path d="M47.9166 37.3125C47.9583 38.875 47.5416 40.3542 46.7916 41.625C46.3749 42.375 45.8125 43.0626 45.1875 43.6251C43.75 44.9584 41.8541 45.7709 39.7499 45.8334C36.7083 45.8959 34.0208 44.3334 32.5416 41.9376C31.7499 40.7084 31.2708 39.2293 31.25 37.6668C31.1875 35.0418 32.3541 32.6667 34.2291 31.1042C35.6458 29.9375 37.4375 29.2084 39.3958 29.1667C44 29.0626 47.8125 32.7083 47.9166 37.3125Z" stroke="#BD294B" stroke-width="1.5" stroke-miterlimit="10" stroke-linecap="round" stroke-linejoin="round"/>
<path d="M36.3334 37.5627L38.4376 39.5626L42.7917 35.3542" stroke="#BD294B" stroke-width="1.5" stroke-linecap="round" stroke-linejoin="round"/>
<path d="M6.60425 15.5L25.0001 26.1458L43.2709 15.5624" stroke="#BD294B" stroke-width="1.5" stroke-linecap="round" stroke-linejoin="round"/>
<path d="M25 45.0209V26.125" stroke="#BD294B" stroke-width="1.5" stroke-linecap="round" stroke-linejoin="round"/>
<path d="M45.0209 19.1043V30.896C45.0209 31.0002 45.0209 31.0834 45.0001 31.1876C43.5417 29.9167 41.6667 29.1668 39.5834 29.1668C37.6251 29.1668 35.8126 29.8543 34.3751 31.0001C32.4584 32.521 31.2501 34.8751 31.2501 37.5001C31.2501 39.0626 31.6875 40.5418 32.4584 41.7918C32.6459 42.1251 32.875 42.4376 33.125 42.7293L29.3126 44.8335C26.9376 46.1668 23.0625 46.1668 20.6875 44.8335L9.56254 38.6668C7.04171 37.271 4.97925 33.771 4.97925 30.896V19.1043C4.97925 16.2293 7.04171 12.7293 9.56254 11.3335L20.6875 5.16675C23.0625 3.83341 26.9376 3.83341 29.3126 5.16675L40.4376 11.3335C42.9584 12.7293 45.0209 16.2293 45.0209 19.1043Z" stroke="#BD294B" stroke-width="1.5" stroke-linecap="round" stroke-linejoin="round"/>
</svg>
