<svg width="50" height="51" viewBox="0 0 50 51" fill="none" xmlns="http://www.w3.org/2000/svg">
<path d="M6.60425 16L25.0001 26.6458L43.2709 16.0624" stroke="#BD294B" stroke-width="1.5" stroke-linecap="round" stroke-linejoin="round"/>
<path d="M25 45.5208V26.625" stroke="#BD294B" stroke-width="1.5" stroke-linecap="round" stroke-linejoin="round"/>
<path d="M20.6875 5.66675L9.56254 11.8543C7.04171 13.2501 4.97925 16.7501 4.97925 19.6251V31.396C4.97925 34.271 7.04171 37.771 9.56254 39.1668L20.6875 45.3544C23.0625 46.6669 26.9584 46.6669 29.3334 45.3544L40.4584 39.1668C42.9792 37.771 45.0417 34.271 45.0417 31.396V19.6251C45.0417 16.7501 42.9792 13.2501 40.4584 11.8543L29.3334 5.66675C26.9375 4.33341 23.0625 4.33341 20.6875 5.66675Z" stroke="#BD294B" stroke-width="1.5" stroke-linecap="round" stroke-linejoin="round"/>
<path d="M35.4166 28.0832V20.4583L15.6458 9.0415" stroke="#BD294B" stroke-width="1.5" stroke-linecap="round" stroke-linejoin="round"/>
</svg>
