<svg width="50" height="51" viewBox="0 0 50 51" fill="none" xmlns="http://www.w3.org/2000/svg">
<path d="M31.25 4.66675V25.5001C31.25 27.7917 29.375 29.6667 27.0833 29.6667H4.16663V13.0001C4.16663 8.39591 7.89579 4.66675 12.5 4.66675H31.25Z" stroke="#BD294B" stroke-width="1.5" stroke-linecap="round" stroke-linejoin="round"/>
<path d="M45.8333 29.6667V35.9167C45.8333 39.3751 43.0416 42.1667 39.5833 42.1667H37.5C37.5 39.8751 35.625 38.0001 33.3333 38.0001C31.0416 38.0001 29.1666 39.8751 29.1666 42.1667H20.8333C20.8333 39.8751 18.9583 38.0001 16.6666 38.0001C14.375 38.0001 12.5 39.8751 12.5 42.1667H10.4166C6.95829 42.1667 4.16663 39.3751 4.16663 35.9167V29.6667H27.0833C29.375 29.6667 31.25 27.7917 31.25 25.5001V10.9167H35.0833C36.5833 10.9167 37.9583 11.7293 38.7083 13.0209L42.2708 19.2501H39.5833C38.4375 19.2501 37.5 20.1876 37.5 21.3334V27.5834C37.5 28.7292 38.4375 29.6667 39.5833 29.6667H45.8333Z" stroke="#BD294B" stroke-width="1.5" stroke-linecap="round" stroke-linejoin="round"/>
<path d="M16.6667 46.3333C18.9679 46.3333 20.8333 44.4679 20.8333 42.1667C20.8333 39.8655 18.9679 38 16.6667 38C14.3655 38 12.5 39.8655 12.5 42.1667C12.5 44.4679 14.3655 46.3333 16.6667 46.3333Z" stroke="#BD294B" stroke-width="1.5" stroke-linecap="round" stroke-linejoin="round"/>
<path d="M33.3333 46.3333C35.6345 46.3333 37.5 44.4679 37.5 42.1667C37.5 39.8655 35.6345 38 33.3333 38C31.0321 38 29.1666 39.8655 29.1666 42.1667C29.1666 44.4679 31.0321 46.3333 33.3333 46.3333Z" stroke="#BD294B" stroke-width="1.5" stroke-linecap="round" stroke-linejoin="round"/>
<path d="M45.8333 25.5V29.6667H39.5833C38.4375 29.6667 37.5 28.7292 37.5 27.5833V21.3333C37.5 20.1875 38.4375 19.25 39.5833 19.25H42.2709L45.8333 25.5Z" stroke="#BD294B" stroke-width="1.5" stroke-linecap="round" stroke-linejoin="round"/>
</svg>
