<svg width="50" height="50" viewBox="0 0 50 50" fill="none" xmlns="http://www.w3.org/2000/svg">
<path d="M24.9999 25.0001C30.7529 25.0001 35.4166 20.3364 35.4166 14.5834C35.4166 8.83045 30.7529 4.16675 24.9999 4.16675C19.247 4.16675 14.5833 8.83045 14.5833 14.5834C14.5833 20.3364 19.247 25.0001 24.9999 25.0001Z" stroke="#BD294B" stroke-width="1.5" stroke-linecap="round" stroke-linejoin="round"/>
<path d="M7.10425 45.8333C7.10425 37.7708 15.1251 31.25 25.0001 31.25C27.0001 31.25 28.9376 31.5208 30.7501 32.0208" stroke="#BD294B" stroke-width="1.5" stroke-linecap="round" stroke-linejoin="round"/>
<path d="M45.8334 37.5001C45.8334 39.0626 45.3959 40.5417 44.6251 41.7917C44.1876 42.5417 43.6251 43.2084 42.9793 43.7501C41.5209 45.0626 39.6042 45.8334 37.5001 45.8334C34.4584 45.8334 31.8126 44.2084 30.3751 41.7917C29.6042 40.5417 29.1667 39.0626 29.1667 37.5001C29.1667 34.8751 30.3751 32.5209 32.2917 31.0001C33.7292 29.8543 35.5417 29.1667 37.5001 29.1667C42.1042 29.1667 45.8334 32.8959 45.8334 37.5001Z" stroke="#BD294B" stroke-width="1.5" stroke-miterlimit="10" stroke-linecap="round" stroke-linejoin="round"/>
<path d="M34.25 37.5001L36.3125 39.5626L40.75 35.4585" stroke="#BD294B" stroke-width="1.5" stroke-linecap="round" stroke-linejoin="round"/>
</svg>
