<svg width="50" height="50" viewBox="0 0 50 50" fill="none" xmlns="http://www.w3.org/2000/svg">
<path d="M37.7917 45.0416C35.9584 45.5832 33.7917 45.8332 31.25 45.8332H18.75C16.2084 45.8332 14.0417 45.5832 12.2084 45.0416C12.6667 39.6249 18.2292 35.354 25 35.354C31.7709 35.354 37.3334 39.6249 37.7917 45.0416Z" stroke="#BD294B" stroke-width="1.5" stroke-linecap="round" stroke-linejoin="round"/>
<path d="M31.25 4.16675H18.75C8.33329 4.16675 4.16663 8.33341 4.16663 18.7501V31.2501C4.16663 39.1251 6.54163 43.4376 12.2083 45.0417C12.6666 39.6251 18.2291 35.3542 25 35.3542C31.7708 35.3542 37.3333 39.6251 37.7916 45.0417C43.4583 43.4376 45.8333 39.1251 45.8333 31.2501V18.7501C45.8333 8.33341 41.6666 4.16675 31.25 4.16675ZM25 29.5209C20.875 29.5209 17.5416 26.1668 17.5416 22.0418C17.5416 17.9168 20.875 14.5834 25 14.5834C29.125 14.5834 32.4583 17.9168 32.4583 22.0418C32.4583 26.1668 29.125 29.5209 25 29.5209Z" stroke="#BD294B" stroke-width="1.5" stroke-linecap="round" stroke-linejoin="round"/>
<path d="M32.4583 22.0416C32.4583 26.1666 29.125 29.5207 25 29.5207C20.875 29.5207 17.5416 26.1666 17.5416 22.0416C17.5416 17.9166 20.875 14.5833 25 14.5833C29.125 14.5833 32.4583 17.9166 32.4583 22.0416Z" stroke="#BD294B" stroke-width="1.5" stroke-linecap="round" stroke-linejoin="round"/>
</svg>
